<svg width="32" height="32" viewBox="0 0 32 32" fill="none" xmlns="http://www.w3.org/2000/svg">
<circle cx="16" cy="16" r="16" fill="black"/>
<path fill-rule="evenodd" clip-rule="evenodd" d="M15.995 0C7.162 0 0 7.162 0 15.997C0 23.064 4.582 29.06 10.94 31.176C11.74 31.322 11.992 30.848 11.992 30.424C11.992 30.044 12 28.982 11.992 27.647C7.543 28.614 6.621 25.54 6.621 25.54C5.894 23.692 4.846 23.2 4.846 23.2C3.394 22.208 4.955 22.227 4.955 22.227C6.56 22.34 7.406 23.876 7.406 23.876C8.833 26.319 11.149 25.613 12.06 25.205C12.206 24.171 12.62 23.466 13.077 23.066C9.525 22.662 5.791 21.29 5.791 15.16C5.791 13.413 6.414 11.986 7.437 10.868C7.272 10.464 6.722 8.837 7.594 6.634C7.594 6.634 8.937 6.204 11.992 8.275C13.268 7.92 14.637 7.743 15.997 7.737C17.356 7.743 18.724 7.92 20.002 8.275C23.057 6.205 24.398 6.634 24.398 6.634C25.27 8.837 24.721 10.464 24.557 10.868C25.58 11.986 26.201 13.413 26.201 15.16C26.201 21.306 22.461 22.658 18.897 23.053C19.471 23.548 19.992 24.508 19.992 26C19.992 28 19.992 29.902 19.992 30.428C19.992 30.856 20.25 31.329 21.062 31.174C27.414 29.055 31.992 23.062 31.992 15.997C31.992 7.162 24.83 0 15.995 0Z" fill="white"/>
</svg>
