<svg width="96" height="28" viewBox="0 0 96 28" fill="none" xmlns="http://www.w3.org/2000/svg">
<path d="M14.9091 27.08L16.1131 23.916L0.629062 16.16V13.36L12.6691 7.34V9.86L3.98906 14.088C3.67173 14.256 3.3824 14.396 3.12106 14.508C2.85973 14.62 2.66373 14.6947 2.53306 14.732C2.66373 14.7693 2.85973 14.844 3.12106 14.956C3.3824 15.068 3.67173 15.208 3.98906 15.376L16.8971 21.816L24.8491 0.759999H27.5091L17.5691 27.08H14.9091ZM32.2581 24V8.6H34.4421V10.644H34.4981C34.5915 9.95333 34.8621 9.39333 35.3101 8.964C35.7768 8.53467 36.3648 8.32 37.0741 8.32C37.7461 8.32 38.3155 8.516 38.7821 8.908C39.2488 9.3 39.5848 9.832 39.7901 10.504H39.8181C39.9488 9.832 40.2381 9.3 40.6861 8.908C41.1528 8.516 41.7408 8.32 42.4501 8.32C43.4395 8.32 44.2235 8.69333 44.8021 9.44C45.3995 10.168 45.6981 11.12 45.6981 12.296V24H43.3461V12.268C43.3461 11.652 43.1968 11.1667 42.8981 10.812C42.5995 10.4387 42.1888 10.252 41.6661 10.252C41.1621 10.252 40.7608 10.4293 40.4621 10.784C40.1635 11.1387 40.0141 11.624 40.0141 12.24V24H37.9421V12.268C37.9421 11.652 37.7928 11.1667 37.4941 10.812C37.1955 10.4387 36.7941 10.252 36.2901 10.252C35.7675 10.252 35.3568 10.4293 35.0581 10.784C34.7595 11.1387 34.6101 11.624 34.6101 12.24V24H32.2581ZM50.5032 24V8.6H53.0232V11.54H53.0792C53.2099 10.5507 53.6299 9.76667 54.3392 9.188C55.0485 8.60933 56.0005 8.32 57.1952 8.32C58.8005 8.32 60.0325 8.80533 60.8912 9.776C61.7685 10.728 62.2072 12.0907 62.2072 13.864V15.18H59.6872V13.864C59.6872 11.624 58.5952 10.504 56.4112 10.504C55.3099 10.504 54.4699 10.8213 53.8912 11.456C53.3125 12.0907 53.0232 13.0053 53.0232 14.2V24H50.5032ZM66.8723 24V3.56H69.3923V14.956H72.3323L76.6443 8.6H79.5283L74.5723 15.936L79.8083 24H76.8683L72.3882 17.14H69.3923V24H66.8723ZM83.3253 22.18V19.744L92.0053 15.488C92.36 15.32 92.6866 15.18 92.9853 15.068C93.3026 14.9373 93.536 14.8533 93.6853 14.816C93.5173 14.7787 93.2746 14.6947 92.9573 14.564C92.64 14.4333 92.3226 14.2933 92.0053 14.144L83.3253 9.86V7.34L95.3653 13.36V16.16L83.3253 22.18Z" fill="black"/>
</svg>
