<svg width="96" height="28" viewBox="0 0 96 28" fill="none" xmlns="http://www.w3.org/2000/svg">
<mask id="path-1-outside-1_11_2" maskUnits="userSpaceOnUse" x="-2" y="-1" width="99" height="30" fill="black">
<rect fill="white" x="-2" y="-1" width="99" height="30"/>
<path d="M14.9091 27.08L16.1131 23.916L0.629062 16.16V13.36L12.6691 7.34V9.86L3.98906 14.088C3.67173 14.256 3.3824 14.396 3.12106 14.508C2.85973 14.62 2.66373 14.6947 2.53306 14.732C2.66373 14.7693 2.85973 14.844 3.12106 14.956C3.3824 15.068 3.67173 15.208 3.98906 15.376L16.8971 21.816L24.8491 0.759999H27.5091L17.5691 27.08H14.9091ZM32.2581 24V8.6H34.4421V10.644H34.4981C34.5915 9.95333 34.8621 9.39333 35.3101 8.964C35.7768 8.53467 36.3648 8.32 37.0741 8.32C37.7461 8.32 38.3155 8.516 38.7821 8.908C39.2488 9.3 39.5848 9.832 39.7901 10.504H39.8181C39.9488 9.832 40.2381 9.3 40.6861 8.908C41.1528 8.516 41.7408 8.32 42.4501 8.32C43.4395 8.32 44.2235 8.69333 44.8021 9.44C45.3995 10.168 45.6981 11.12 45.6981 12.296V24H43.3461V12.268C43.3461 11.652 43.1968 11.1667 42.8981 10.812C42.5995 10.4387 42.1888 10.252 41.6661 10.252C41.1621 10.252 40.7608 10.4293 40.4621 10.784C40.1635 11.1387 40.0141 11.624 40.0141 12.24V24H37.9421V12.268C37.9421 11.652 37.7928 11.1667 37.4941 10.812C37.1955 10.4387 36.7941 10.252 36.2901 10.252C35.7675 10.252 35.3568 10.4293 35.0581 10.784C34.7595 11.1387 34.6101 11.624 34.6101 12.24V24H32.2581ZM50.5032 24V8.6H53.0232V11.54H53.0792C53.2099 10.5507 53.6299 9.76667 54.3392 9.188C55.0485 8.60933 56.0005 8.32 57.1952 8.32C58.8005 8.32 60.0325 8.80533 60.8912 9.776C61.7685 10.728 62.2072 12.0907 62.2072 13.864V15.18H59.6872V13.864C59.6872 11.624 58.5952 10.504 56.4112 10.504C55.3099 10.504 54.4699 10.8213 53.8912 11.456C53.3125 12.0907 53.0232 13.0053 53.0232 14.2V24H50.5032ZM66.8723 24V3.56H69.3923V14.956H72.3323L76.6443 8.6H79.5283L74.5723 15.936L79.8083 24H76.8683L72.3882 17.14H69.3923V24H66.8723ZM83.3253 22.18V19.744L92.0053 15.488C92.36 15.32 92.6866 15.18 92.9853 15.068C93.3026 14.9373 93.536 14.8533 93.6853 14.816C93.5173 14.7787 93.2746 14.6947 92.9573 14.564C92.64 14.4333 92.3226 14.2933 92.0053 14.144L83.3253 9.86V7.34L95.3653 13.36V16.16L83.3253 22.18Z"/>
</mask>
<path d="M14.9091 27.08L16.1131 23.916L0.629062 16.16V13.36L12.6691 7.34V9.86L3.98906 14.088C3.67173 14.256 3.3824 14.396 3.12106 14.508C2.85973 14.62 2.66373 14.6947 2.53306 14.732C2.66373 14.7693 2.85973 14.844 3.12106 14.956C3.3824 15.068 3.67173 15.208 3.98906 15.376L16.8971 21.816L24.8491 0.759999H27.5091L17.5691 27.08H14.9091ZM32.2581 24V8.6H34.4421V10.644H34.4981C34.5915 9.95333 34.8621 9.39333 35.3101 8.964C35.7768 8.53467 36.3648 8.32 37.0741 8.32C37.7461 8.32 38.3155 8.516 38.7821 8.908C39.2488 9.3 39.5848 9.832 39.7901 10.504H39.8181C39.9488 9.832 40.2381 9.3 40.6861 8.908C41.1528 8.516 41.7408 8.32 42.4501 8.32C43.4395 8.32 44.2235 8.69333 44.8021 9.44C45.3995 10.168 45.6981 11.12 45.6981 12.296V24H43.3461V12.268C43.3461 11.652 43.1968 11.1667 42.8981 10.812C42.5995 10.4387 42.1888 10.252 41.6661 10.252C41.1621 10.252 40.7608 10.4293 40.4621 10.784C40.1635 11.1387 40.0141 11.624 40.0141 12.24V24H37.9421V12.268C37.9421 11.652 37.7928 11.1667 37.4941 10.812C37.1955 10.4387 36.7941 10.252 36.2901 10.252C35.7675 10.252 35.3568 10.4293 35.0581 10.784C34.7595 11.1387 34.6101 11.624 34.6101 12.24V24H32.2581ZM50.5032 24V8.6H53.0232V11.54H53.0792C53.2099 10.5507 53.6299 9.76667 54.3392 9.188C55.0485 8.60933 56.0005 8.32 57.1952 8.32C58.8005 8.32 60.0325 8.80533 60.8912 9.776C61.7685 10.728 62.2072 12.0907 62.2072 13.864V15.18H59.6872V13.864C59.6872 11.624 58.5952 10.504 56.4112 10.504C55.3099 10.504 54.4699 10.8213 53.8912 11.456C53.3125 12.0907 53.0232 13.0053 53.0232 14.2V24H50.5032ZM66.8723 24V3.56H69.3923V14.956H72.3323L76.6443 8.6H79.5283L74.5723 15.936L79.8083 24H76.8683L72.3882 17.14H69.3923V24H66.8723ZM83.3253 22.18V19.744L92.0053 15.488C92.36 15.32 92.6866 15.18 92.9853 15.068C93.3026 14.9373 93.536 14.8533 93.6853 14.816C93.5173 14.7787 93.2746 14.6947 92.9573 14.564C92.64 14.4333 92.3226 14.2933 92.0053 14.144L83.3253 9.86V7.34L95.3653 13.36V16.16L83.3253 22.18Z" fill="white"/>
<path d="M14.9091 27.08L13.9744 26.7243L13.4586 28.08H14.9091V27.08ZM16.1131 23.916L17.0477 24.2717L17.3692 23.4268L16.5609 23.0219L16.1131 23.916ZM0.629062 16.16H-0.370938V16.7775L0.181202 17.0541L0.629062 16.16ZM0.629062 13.36L0.181848 12.4656L-0.370938 12.742V13.36H0.629062ZM12.6691 7.34H13.6691V5.72197L12.2218 6.44557L12.6691 7.34ZM12.6691 9.86L13.107 10.759L13.6691 10.4852V9.86H12.6691ZM3.98906 14.088L3.55115 13.189L3.53604 13.1963L3.52117 13.2042L3.98906 14.088ZM2.53306 14.732L2.25834 13.7705L-1.10701 14.732L2.25834 15.6935L2.53306 14.732ZM3.98906 15.376L3.52117 16.2598L3.53183 16.2654L3.54262 16.2708L3.98906 15.376ZM16.8971 21.816L16.4506 22.7108L17.4414 23.2051L17.8326 22.1693L16.8971 21.816ZM24.8491 0.759999V-0.240001H24.1578L23.9136 0.406695L24.8491 0.759999ZM27.5091 0.759999L28.4446 1.1133L28.9557 -0.240001H27.5091V0.759999ZM17.5691 27.08V28.08H18.2603L18.5046 27.4333L17.5691 27.08ZM15.8437 27.4357L17.0477 24.2717L15.1784 23.5603L13.9744 26.7243L15.8437 27.4357ZM16.5609 23.0219L1.07692 15.2659L0.181202 17.0541L15.6652 24.8101L16.5609 23.0219ZM1.62906 16.16V13.36H-0.370938V16.16H1.62906ZM1.07628 14.2544L13.1163 8.23443L12.2218 6.44557L0.181848 12.4656L1.07628 14.2544ZM11.6691 7.34V9.86H13.6691V7.34H11.6691ZM12.2312 8.96098L3.55115 13.189L4.42697 14.987L13.107 10.759L12.2312 8.96098ZM3.52117 13.2042C3.22206 13.3626 2.95784 13.49 2.72714 13.5889L3.51498 15.4271C3.80695 15.302 4.1214 15.1494 4.45695 14.9718L3.52117 13.2042ZM2.72714 13.5889C2.47227 13.6981 2.32475 13.7515 2.25834 13.7705L2.80778 15.6935C3.00271 15.6378 3.24719 15.5419 3.51498 15.4271L2.72714 13.5889ZM2.25834 15.6935C2.32475 15.7125 2.47227 15.7659 2.72714 15.8751L3.51498 14.0369C3.24719 13.9221 3.00271 13.8262 2.80778 13.7705L2.25834 15.6935ZM2.72714 15.8751C2.95784 15.974 3.22206 16.1014 3.52117 16.2598L4.45695 14.4922C4.1214 14.3146 3.80695 14.162 3.51498 14.0369L2.72714 15.8751ZM3.54262 16.2708L16.4506 22.7108L17.3435 20.9212L4.4355 14.4812L3.54262 16.2708ZM17.8326 22.1693L25.7846 1.1133L23.9136 0.406695L15.9616 21.4627L17.8326 22.1693ZM24.8491 1.76H27.5091V-0.240001H24.8491V1.76ZM26.5736 0.406695L16.6336 26.7267L18.5046 27.4333L28.4446 1.1133L26.5736 0.406695ZM17.5691 26.08H14.9091V28.08H17.5691V26.08ZM32.2581 24H31.2581V25H32.2581V24ZM32.2581 8.6V7.6H31.2581V8.6H32.2581ZM34.4421 8.6H35.4421V7.6H34.4421V8.6ZM34.4421 10.644H33.4421V11.644H34.4421V10.644ZM34.4981 10.644V11.644H35.3721L35.4891 10.7779L34.4981 10.644ZM35.3101 8.964L34.6331 8.22807L34.6256 8.23496L34.6182 8.24201L35.3101 8.964ZM38.7821 8.908L39.4253 8.14229L39.4253 8.14229L38.7821 8.908ZM39.7901 10.504L38.8338 10.7962L39.05 11.504H39.7901V10.504ZM39.8181 10.504V11.504H40.6424L40.7997 10.6949L39.8181 10.504ZM40.6861 8.908L40.0429 8.14229L40.0352 8.14878L40.0276 8.15542L40.6861 8.908ZM44.8021 9.44L44.0117 10.0526L44.0202 10.0636L44.0291 10.0743L44.8021 9.44ZM45.6981 24V25H46.6981V24H45.6981ZM43.3461 24H42.3461V25H43.3461V24ZM42.8981 10.812L42.1173 11.4367L42.1251 11.4465L42.1332 11.4561L42.8981 10.812ZM40.4621 10.784L39.6972 10.1399L39.6972 10.1399L40.4621 10.784ZM40.0141 24V25H41.0141V24H40.0141ZM37.9421 24H36.9421V25H37.9421V24ZM37.4941 10.812L36.7133 11.4367L36.7211 11.4465L36.7292 11.4561L37.4941 10.812ZM35.0581 10.784L34.2932 10.1399L34.2932 10.1399L35.0581 10.784ZM34.6101 24V25H35.6101V24H34.6101ZM33.2581 24V8.6H31.2581V24H33.2581ZM32.2581 9.6H34.4421V7.6H32.2581V9.6ZM33.4421 8.6V10.644H35.4421V8.6H33.4421ZM34.4421 11.644H34.4981V9.644H34.4421V11.644ZM35.4891 10.7779C35.5561 10.2823 35.7375 9.93954 36.002 9.68599L34.6182 8.24201C33.9868 8.84712 33.6268 9.62439 33.5071 10.5101L35.4891 10.7779ZM35.9872 9.69993C36.2469 9.46098 36.5835 9.32 37.0741 9.32V7.32C36.1461 7.32 35.3067 7.60836 34.6331 8.22807L35.9872 9.69993ZM37.0741 9.32C37.5367 9.32 37.8713 9.44887 38.1389 9.6737L39.4253 8.14229C38.7596 7.58313 37.9556 7.32 37.0741 7.32V9.32ZM38.1389 9.6737C38.4361 9.92331 38.6761 10.28 38.8338 10.7962L40.7465 10.2118C40.4935 9.38397 40.0615 8.67669 39.4253 8.14229L38.1389 9.6737ZM39.7901 11.504H39.8181V9.504H39.7901V11.504ZM40.7997 10.6949C40.8947 10.2066 41.0881 9.885 41.3446 9.66058L40.0276 8.15542C39.3881 8.715 39.0029 9.45742 38.8365 10.3131L40.7997 10.6949ZM41.3293 9.6737C41.587 9.45725 41.9355 9.32 42.4501 9.32V7.32C41.5461 7.32 40.7186 7.57475 40.0429 8.14229L41.3293 9.6737ZM42.4501 9.32C43.1473 9.32 43.6326 9.56344 44.0117 10.0526L45.5925 8.82743C44.8143 7.82323 43.7316 7.32 42.4501 7.32V9.32ZM44.0291 10.0743C44.4461 10.5826 44.6981 11.2922 44.6981 12.296H46.6981C46.6981 10.9478 46.3528 9.75341 45.5752 8.80568L44.0291 10.0743ZM44.6981 12.296V24H46.6981V12.296H44.6981ZM45.6981 23H43.3461V25H45.6981V23ZM44.3461 24V12.268H42.3461V24H44.3461ZM44.3461 12.268C44.3461 11.4944 44.1572 10.7547 43.663 10.1679L42.1332 11.4561C42.2364 11.5786 42.3461 11.8096 42.3461 12.268H44.3461ZM43.679 10.1873C43.1712 9.55259 42.4602 9.252 41.6661 9.252V11.252C41.9174 11.252 42.0277 11.3247 42.1173 11.4367L43.679 10.1873ZM41.6661 9.252C40.8963 9.252 40.2039 9.53821 39.6972 10.1399L41.227 11.4281C41.3177 11.3205 41.428 11.252 41.6661 11.252V9.252ZM39.6972 10.1399C39.203 10.7267 39.0141 11.4664 39.0141 12.24H41.0141C41.0141 11.7816 41.1239 11.5506 41.227 11.4281L39.6972 10.1399ZM39.0141 12.24V24H41.0141V12.24H39.0141ZM40.0141 23H37.9421V25H40.0141V23ZM38.9421 24V12.268H36.9421V24H38.9421ZM38.9421 12.268C38.9421 11.4944 38.7532 10.7547 38.259 10.1679L36.7292 11.4561C36.8324 11.5786 36.9421 11.8096 36.9421 12.268H38.9421ZM38.275 10.1873C37.775 9.56231 37.0789 9.252 36.2901 9.252V11.252C36.5093 11.252 36.6159 11.315 36.7133 11.4367L38.275 10.1873ZM36.2901 9.252C35.5146 9.252 34.8074 9.52921 34.2932 10.1399L35.823 11.4281C35.9061 11.3295 36.0203 11.252 36.2901 11.252V9.252ZM34.2932 10.1399C33.799 10.7267 33.6101 11.4664 33.6101 12.24H35.6101C35.6101 11.7816 35.7199 11.5506 35.823 11.4281L34.2932 10.1399ZM33.6101 12.24V24H35.6101V12.24H33.6101ZM34.6101 23H32.2581V25H34.6101V23ZM50.5032 24H49.5032V25H50.5032V24ZM50.5032 8.6V7.6H49.5032V8.6H50.5032ZM53.0232 8.6H54.0232V7.6H53.0232V8.6ZM53.0232 11.54H52.0232V12.54H53.0232V11.54ZM53.0792 11.54V12.54H53.9558L54.0706 11.6709L53.0792 11.54ZM54.3392 9.188L53.7071 8.41313L53.7071 8.41313L54.3392 9.188ZM60.8912 9.776L60.1422 10.4386L60.1489 10.4462L60.1558 10.4537L60.8912 9.776ZM62.2072 15.18V16.18H63.2072V15.18H62.2072ZM59.6872 15.18H58.6872V16.18H59.6872V15.18ZM53.8912 11.456L54.6301 12.1298L54.6301 12.1298L53.8912 11.456ZM53.0232 24V25H54.0232V24H53.0232ZM51.5032 24V8.6H49.5032V24H51.5032ZM50.5032 9.6H53.0232V7.6H50.5032V9.6ZM52.0232 8.6V11.54H54.0232V8.6H52.0232ZM53.0232 12.54H53.0792V10.54H53.0232V12.54ZM54.0706 11.6709C54.1712 10.9093 54.478 10.3653 54.9713 9.96286L53.7071 8.41313C52.7817 9.16801 52.2485 10.192 52.0878 11.4091L54.0706 11.6709ZM54.9713 9.96286C55.4539 9.56914 56.1598 9.32 57.1952 9.32V7.32C55.8412 7.32 54.6431 7.64952 53.7071 8.41313L54.9713 9.96286ZM57.1952 9.32C58.588 9.32 59.5173 9.73223 60.1422 10.4386L61.6402 9.11343C60.5477 7.87844 59.0131 7.32 57.1952 7.32V9.32ZM60.1558 10.4537C60.8086 11.162 61.2072 12.2479 61.2072 13.864H63.2072C63.2072 11.9334 62.7285 10.294 61.6265 9.09832L60.1558 10.4537ZM61.2072 13.864V15.18H63.2072V13.864H61.2072ZM62.2072 14.18H59.6872V16.18H62.2072V14.18ZM60.6872 15.18V13.864H58.6872V15.18H60.6872ZM60.6872 13.864C60.6872 12.5961 60.3783 11.4604 59.5842 10.6459C58.7855 9.82676 57.6638 9.504 56.4112 9.504V11.504C57.3425 11.504 57.8589 11.7412 58.1522 12.0421C58.4501 12.3476 58.6872 12.8919 58.6872 13.864H60.6872ZM56.4112 9.504C55.113 9.504 53.9706 9.88466 53.1522 10.7822L54.6301 12.1298C54.9691 11.758 55.5067 11.504 56.4112 11.504V9.504ZM53.1522 10.7822C52.3497 11.6625 52.0232 12.8539 52.0232 14.2H54.0232C54.0232 13.1568 54.2754 12.5189 54.6301 12.1298L53.1522 10.7822ZM52.0232 14.2V24H54.0232V14.2H52.0232ZM53.0232 23H50.5032V25H53.0232V23ZM66.8723 24H65.8723V25H66.8723V24ZM66.8723 3.56V2.56H65.8723V3.56H66.8723ZM69.3923 3.56H70.3923V2.56H69.3923V3.56ZM69.3923 14.956H68.3923V15.956H69.3923V14.956ZM72.3323 14.956V15.956H72.8622L73.1598 15.5174L72.3323 14.956ZM76.6443 8.6V7.6H76.1143L75.8167 8.03859L76.6443 8.6ZM79.5283 8.6L80.3569 9.1598L81.4106 7.6H79.5283V8.6ZM74.5723 15.936L73.7436 15.3762L73.3728 15.9251L73.7335 16.4806L74.5723 15.936ZM79.8083 24V25H81.6499L80.647 23.4554L79.8083 24ZM76.8683 24L76.031 24.5468L76.327 25H76.8683V24ZM72.3882 17.14L73.2255 16.5932L72.9295 16.14H72.3882V17.14ZM69.3923 17.14V16.14H68.3923V17.14H69.3923ZM69.3923 24V25H70.3923V24H69.3923ZM67.8723 24V3.56H65.8723V24H67.8723ZM66.8723 4.56H69.3923V2.56H66.8723V4.56ZM68.3923 3.56V14.956H70.3923V3.56H68.3923ZM69.3923 15.956H72.3323V13.956H69.3923V15.956ZM73.1598 15.5174L77.4718 9.16141L75.8167 8.03859L71.5047 14.3946L73.1598 15.5174ZM76.6443 9.6H79.5283V7.6H76.6443V9.6ZM78.6996 8.0402L73.7436 15.3762L75.4009 16.4958L80.3569 9.1598L78.6996 8.0402ZM73.7335 16.4806L78.9695 24.5446L80.647 23.4554L75.411 15.3914L73.7335 16.4806ZM79.8083 23H76.8683V25H79.8083V23ZM77.7055 23.4532L73.2255 16.5932L71.551 17.6868L76.031 24.5468L77.7055 23.4532ZM72.3882 16.14H69.3923V18.14H72.3882V16.14ZM68.3923 17.14V24H70.3923V17.14H68.3923ZM69.3923 23H66.8723V25H69.3923V23ZM83.3253 22.18H82.3253V23.798L83.7725 23.0744L83.3253 22.18ZM83.3253 19.744L82.8851 18.8461L82.3253 19.1206V19.744H83.3253ZM92.0053 15.488L91.5772 14.5842L91.5651 14.5901L92.0053 15.488ZM92.9853 15.068L93.3364 16.0043L93.3513 15.9987L93.3661 15.9927L92.9853 15.068ZM93.6853 14.816L93.9278 15.7861L93.9022 13.8398L93.6853 14.816ZM92.0053 14.144L91.5627 15.0407L91.5711 15.0449L91.5795 15.0488L92.0053 14.144ZM83.3253 9.86H82.3253V10.4816L82.8827 10.7567L83.3253 9.86ZM83.3253 7.34L83.7725 6.44557L82.3253 5.72197V7.34H83.3253ZM95.3653 13.36H96.3653V12.742L95.8125 12.4656L95.3653 13.36ZM95.3653 16.16L95.8125 17.0544L96.3653 16.778V16.16H95.3653ZM84.3253 22.18V19.744H82.3253V22.18H84.3253ZM83.7656 20.6419L92.4456 16.3859L91.5651 14.5901L82.8851 18.8461L83.7656 20.6419ZM92.4334 16.3917C92.7684 16.2331 93.069 16.1046 93.3364 16.0043L92.6342 14.1317C92.3043 14.2554 91.9516 14.4069 91.5772 14.5843L92.4334 16.3917ZM93.3661 15.9927C93.6793 15.8637 93.8548 15.8044 93.9278 15.7861L93.4428 13.8459C93.2172 13.9023 92.926 14.011 92.6046 14.1433L93.3661 15.9927ZM93.9022 13.8398C93.8214 13.8218 93.6436 13.7651 93.3381 13.6393L92.5766 15.4887C92.9057 15.6242 93.2132 15.7355 93.4684 15.7922L93.9022 13.8398ZM93.3381 13.6393C93.0362 13.515 92.7339 13.3817 92.4311 13.2392L91.5795 15.0488C91.9114 15.205 92.2437 15.3516 92.5766 15.4887L93.3381 13.6393ZM92.4479 13.2473L83.7679 8.96327L82.8827 10.7567L91.5627 15.0407L92.4479 13.2473ZM84.3253 9.86V7.34H82.3253V9.86H84.3253ZM82.8781 8.23443L94.9181 14.2544L95.8125 12.4656L83.7725 6.44557L82.8781 8.23443ZM94.3653 13.36V16.16H96.3653V13.36H94.3653ZM94.9181 15.2656L82.8781 21.2856L83.7725 23.0744L95.8125 17.0544L94.9181 15.2656Z" fill="white" mask="url(#path-1-outside-1_11_2)"/>
</svg>
